<svg width="306" height="270" viewBox="0 0 306 270" fill="none" xmlns="http://www.w3.org/2000/svg">
<path d="M207.918 247.445C199.86 236.675 191.585 222.863 184.128 207.436C169.509 177.195 161.272 147.929 161.53 127.145L161.532 127.02L161.422 126.959C133.848 111.736 111.574 85.0239 97.7452 65.2959C82.7545 43.9119 74.1771 25.8972 74.0945 25.7186L73.7158 25.8972C73.8012 26.0772 82.3891 44.1172 97.3971 65.5292C111.234 85.2692 133.516 111.992 161.109 127.265C160.888 148.104 169.136 177.381 183.752 207.616C191.209 223.047 199.49 236.868 207.561 247.66C207.677 247.584 207.796 247.511 207.918 247.445" fill="#eaeaea"/>
<path d="M185.85 268.876C179.541 255.621 173.168 238.129 168.204 219.791C162.3 197.988 153.584 156.967 161.522 127.196L161.54 127.137L161.52 127.08C148.873 86.94 156.438 1.62796 156.517 0.771956L156.102 0.733284C156.024 1.59062 148.457 86.9026 161.105 127.147C153.166 157.008 161.89 198.072 167.8 219.903C172.8 238.369 179.23 255.985 185.596 269.301C185.672 269.155 185.753 269.011 185.85 268.876" fill="#eaeaea"/>
<path d="M142.986 129.507C118.688 129.507 87.4837 121.017 63.1211 112.864C29.3971 101.577 1.16109 88.4866 0.879761 88.3572L1.0544 87.9773C1.33574 88.1093 29.5531 101.189 63.2584 112.469C94.3131 122.863 136.496 133.807 161.194 126.96C189.312 87.8546 264.546 22.9599 265.302 22.3093L265.574 22.6253C264.818 23.2773 189.548 88.2053 161.49 127.264L161.446 127.324L161.377 127.343C155.981 128.849 149.749 129.507 142.986 129.507" fill="#eaeaea"/>
<path d="M62.9397 253.655L62.6011 253.411C66.1704 248.452 150.174 131.928 161.236 126.952C172.276 121.983 300.074 112.043 305.51 111.623L305.544 112.039C304.213 112.141 172.382 122.393 161.406 127.333C150.448 132.264 63.8144 252.441 62.9397 253.655" fill="#eaeaea"/>
<path d="M305.472 182.883C304.361 182.58 194.034 152.323 161.194 127.308L161.446 126.976C194.222 151.943 304.472 182.177 305.582 182.481L305.472 182.883" fill="#eaeaea"/>
<path d="M173.282 237.477L173.137 237.428C172.476 237.201 106.658 214.933 81.6078 227.968L81.4317 228.056L81.3291 227.887C79.0091 223.913 75.2184 212.228 70.4171 197.439C58.7971 161.649 41.2397 107.567 23.8704 98.248L23.6704 98.1413L23.7931 97.9506C26.3851 93.9133 32.4944 86.7386 39.5677 78.432C52.2557 63.5306 68.0464 44.9879 76.0784 30.3839L76.1277 30.2946L76.2304 30.2786C109.07 25.288 154.448 5.87996 155.888 3.55729L156.244 3.77731C154.462 6.64798 107.848 25.8693 76.3917 30.676C68.3264 45.3026 52.5571 63.8186 39.8851 78.7026C32.9304 86.8693 26.9091 93.9413 24.2664 97.9879C41.7184 107.688 59.2184 161.593 70.8131 197.308C75.5384 211.865 79.2851 223.411 81.5931 227.504C106.374 214.868 169.736 235.845 173.136 236.985C173.817 236.215 178.19 232.147 196.029 230.028C202.866 211.813 267.644 173.684 270.212 172.177C270.758 170.221 280.757 134.875 296.224 112.661C281.602 108.324 272.924 85.0679 268.21 66.2546C263.333 46.7933 261.581 27.9746 261.405 25.9946C255.504 25.2866 164.338 14.2159 155.877 5.75062C152.637 7.23328 94.0784 33.9453 78.4424 34.524C65.3998 65.9586 44.3184 95.6599 33.8131 101.784C48.4038 108.484 62.8371 155.551 73.4011 189.997C77.8877 204.632 81.7731 217.296 84.6158 223.373C102.293 212.441 125.182 215.999 141.304 220.92C158.014 226.02 171.082 233.6 172.356 234.353C173.776 233.616 187.133 226.811 194.08 226.811C194.093 226.811 194.106 226.811 194.12 226.811C197.954 210.619 246.574 168.224 249.586 165.611C249.537 164.191 249.43 148.589 265.214 115.116C256.19 88.7266 251.71 38.8386 251.373 34.9506C249.008 35.4639 229.19 39.6026 208.262 38.872C195.214 38.4173 184.289 36.192 175.792 32.2533C165.306 27.3933 158.504 19.904 155.57 9.98662C142.161 31.9333 85.7331 41.5906 82.7158 42.0906C81.3584 45.8053 60.8918 101.123 44.9757 106.048C56.3784 112.22 88.6091 202.132 91.5411 214.045C110.576 205.056 166.358 219.561 168.122 220.025L189.049 217.613C190.694 215.556 227.604 169.537 239.648 162.256C234.377 137.003 235.441 118.952 235.516 117.82C234.857 116.411 220.874 86.372 215.94 67.6666C203.11 61.5813 156.516 27.9146 153.944 26.0546L93.3571 59.1266C92.7637 61.0306 82.0144 94.2346 53.5944 109.297C61.7957 118.319 82.2478 177.389 92.1171 205.889L93.8557 210.908C119.477 199.649 164.802 214.064 166.71 214.681C167.941 214.365 182.793 210.676 187.564 214.567C190.996 208.356 232.845 163.689 235.504 160.852C235.185 158.993 230.765 132.851 231.204 118.345C227.458 117.356 225.344 112.807 220.789 103.005C217.794 96.564 213.697 87.748 207.358 76.0573C194.937 70.2986 157.149 30.18 154.616 27.4813C151.764 29.7066 110.05 62.184 99.3851 67.8146C98.8451 78.2706 71.6677 107.051 60.2277 111.535C70.4851 117.973 96.9358 184.661 97.5491 205.801C105.848 197.529 123.394 197.663 136.75 199.259C150.716 200.925 163.094 204.485 164.321 204.845C165.352 204.111 175.389 197.231 181.464 202.103C193.56 177.525 229.522 161.161 232.572 159.812C231.078 156.857 216.438 127.627 218.22 120.479C214.062 117.368 208.037 89.8026 205.586 77.8213C201.638 77.2173 163.486 55.4053 154.156 38.632C153.609 39.0173 151.938 40.372 149.892 42.0306C138.41 51.3333 111.936 72.7826 103.35 72.7853C103.213 72.7853 103.081 72.78 102.953 72.7693C104.006 83.3626 85.7824 108.444 78.4798 117.457C93.5704 140.019 103.488 193.729 104.121 197.239C107.473 197.163 155.893 196.067 162.538 196.067C168.949 196.067 176.128 192.703 176.977 192.295C179.72 182.653 211.689 154.815 213.874 152.919C213.894 150.847 214.201 125.065 216.162 119.769C212.256 118.095 204.262 89.1533 203.126 80.2253C198.94 79.3173 171.43 69.936 154.006 49.5693C150.558 55.584 112.165 77.1986 107.089 78.3306C105.378 84.2506 91.5771 113.395 86.6931 119.776C102.302 131.269 108.013 180.405 108.62 190.981C113.621 186.364 127.922 186.855 136.126 187.579C147.986 188.617 158.801 191.057 161.834 192.755C164.113 187.287 172.616 188.257 175.565 188.776C176.329 181.04 194.704 158.545 206.05 149.847C205.936 141.843 210.038 121.597 210.312 120.255C209.768 119.093 202.198 102.611 200.866 82.6373C199.74 83.1373 198.276 83.3666 196.556 83.3666C186.268 83.368 166.708 75.176 154.033 67.8493C148.021 77.5 112.993 81.5226 109.985 81.8519C109.437 84.7826 103.025 118.456 97.1571 122.527C103.836 126.079 109.402 145.835 113.89 161.765C115.77 168.433 117.394 174.205 118.804 177.708C133.114 176.713 159.457 188.427 161.306 189.257C162.165 188.745 168.578 185.028 174.194 185.32C175.281 173.959 200.248 149.841 201.97 148.191C202.058 147.119 203.034 135.309 203.556 121.052C200.87 119.447 199.273 113.547 195.492 99.5626C194.765 96.8706 193.956 93.8866 193.046 90.5839C184.112 92.9306 171.132 86.8746 154.409 77.04C149.566 83.7786 121.958 92.592 119.808 93.2706C119.294 94.4826 113.65 107.795 106.176 124.676C109.997 130.525 112.83 140.372 115.572 149.896C117.886 157.936 120.278 166.249 123.217 171.883C135.557 169.439 158.244 177.233 159.658 177.725C160.301 177.519 165.364 175.916 170.605 175.352C173.908 168.144 198.25 148.839 200.076 147.397C200.16 146.136 201.048 132.357 200.944 121.365C198.422 120.415 194.698 112.475 190.009 102.479C189.121 100.587 188.205 98.6319 187.264 96.6519C176.05 98.4053 156.36 82.548 154.51 81.0346L124.52 98.1533C124.569 99.7213 124.938 115.295 120.694 127.383C127.629 137.292 128.66 152.52 128.754 164.777C138.132 161.827 154.238 168.421 159.129 173.029C162.094 169.591 167.712 171.477 169.652 172.279C172.425 167.265 186.521 155.068 198.978 146.929C199.12 143.524 199.645 123.083 199.688 121.445C198.537 120.5 185.485 109.644 182.614 101.627C182.58 101.629 182.544 101.629 182.504 101.629C179.437 101.629 162.725 95.9986 155.208 90.4333C151.586 97.8613 131.9 103.025 129.877 103.537C129.63 105.431 127.316 122.807 124.266 127.9C127.75 131.707 133.576 148.005 134.236 157.719C142.734 154.483 157.32 164.728 158.588 165.636C159.2 165.561 163.076 165.129 167.572 165.632C174.106 156.268 195.534 147.3 197.498 146.495L195.461 121.909C194.738 121.175 187.018 113.236 181.112 103.319C176.372 104.139 157.473 99.9666 156.012 99.64C154.996 100.028 141.506 105.123 131.932 105.123C131.832 105.123 131.733 105.123 131.634 105.121C134.712 112.565 129.189 126.965 128.608 128.444C129.378 129.624 137.221 141.847 138.806 152.019C148.341 151.577 157.396 161.987 158.457 163.244C159.156 162.955 162.181 161.88 166.722 162.779C169.401 155.1 189.94 144.752 191.82 143.82L193.417 122.164C192.448 121.62 186.328 117.776 180.074 104.469C172.321 106.583 157.629 104.579 156.602 104.435C155.693 104.795 143.266 109.717 138.57 111.343C137.818 115.509 133.82 127.721 133.432 128.9L143.666 146.033L158.212 154.697C158.642 154.66 160.894 154.521 164.853 155.399C167.62 150.287 185.67 142.632 187.505 141.863L188.256 122.736C187.344 121.923 178.281 113.839 174.536 110.695L156.893 106.535C155.849 107.117 145.625 112.753 140.508 112.909C141.38 115.995 139.789 128.171 139.646 129.243C139.956 129.975 143.326 138.051 144.702 144.811C149.566 146.933 157.242 152.881 158.198 153.627C158.821 153.367 161.722 152.228 164.214 152.667C165.829 149.204 182.369 140.979 183.958 140.193L186.622 122.925L173.405 112.033C172.382 111.947 161.946 111.008 157.213 108.284C155.954 110.919 145.944 115.619 144.677 116.205C144.617 117.416 144.134 126.085 142.417 129.271C144.678 131.201 146.269 141.369 146.465 142.68C147.362 143.015 153.19 145.248 158.298 148.756C159.968 148.073 163.04 149.385 163.689 149.679C164.713 148.876 173.245 142.216 179.916 138.211C182.224 129.747 184.561 124.055 184.964 123.099C184.086 122.349 178.354 117.499 172.332 113.371C168.746 114.361 158.7 111.52 157.606 111.204L146.16 117.296L147.052 129.309L149.425 139.195L158.45 146.409C158.962 146.347 161.39 146.147 163.318 147.665C169.893 140.461 175.545 136.927 176.377 136.425V124.261C175.938 123.869 173.686 121.704 170.165 115.871C166.226 116.451 159.261 114.804 158.244 114.556L151.564 121.163L148.216 129.2L150.637 137.739L158.844 141.709L162.74 144.3L174.004 135.181L173.514 124.652L168.544 117.875L159.418 120.048L154.124 122.892L151.526 128.907L154.852 133.007L159.385 136.939L161.713 136.739L170.31 133.032L171.646 124.945L166.374 120.584L159.66 121.139L155.049 123.456L154.174 128.612L155.472 132.357L159.649 135.276L161.614 135.577L167.938 131.641C167.996 131.037 168.362 127.992 169.806 125.264C168.692 124.739 166.412 122.085 165.773 121.327L159.9 122.044L156.433 124.296L155.962 128.345L156.702 131.093L159.926 133.669L161.46 133.896L165.469 130.067C165.596 129.741 166.406 127.703 167.689 125.617C166.237 125.048 164.71 123.425 164.392 123.076L160.078 122.756L157.508 125.027V128.045L158.12 129.633L160.502 130.731L161.314 131.188L164.292 129.255L165.613 125.952L163.873 123.773L160.409 123.933L158.673 125.632L158.184 127.887L159.056 128.756L160.642 130.163L161.306 130.341L163.432 128.699L163.918 126.327L163.036 124.828L160.577 124.564L159.35 125.988V127.641L159.665 128.204L160.954 128.651L161.308 128.811L162.568 128.056L163.052 126.547L162.365 125.727L160.777 125.263L160.061 126.444L159.704 126.227L160.586 124.772L162.604 125.361L163.521 126.455L162.917 128.333L161.333 129.283L160.8 129.037L159.378 128.547L158.933 127.749V125.833L160.404 124.125L163.289 124.435L164.36 126.252L163.81 128.935L161.398 130.799L160.4 130.507L158.77 129.06L157.726 128.021L158.293 125.42L160.232 123.524L164.066 123.345L166.092 125.881L164.63 129.533L161.328 131.675L160.313 131.103L157.792 129.941L157.09 128.084V124.837L159.933 122.327L164.593 122.672L164.649 122.736C164.666 122.756 166.516 124.833 168.065 125.307L168.326 125.387L168.181 125.617C166.728 127.92 165.85 130.236 165.842 130.26L165.79 130.336L161.6 134.34L159.753 134.065L156.334 131.333L155.538 128.376L155.544 128.336L156.041 124.053L159.801 121.636L165.949 120.885L166.021 120.972C167.272 122.471 169.494 124.871 170.129 124.937L170.444 124.971L170.29 125.245C168.626 128.248 168.346 131.745 168.344 131.78L168.336 131.885L161.704 136.013L159.449 135.645L155.12 132.623L153.745 128.648L154.673 123.179L159.585 120.727L166.509 120.153L166.573 120.208L172.097 124.777L170.686 133.325L161.781 137.152L159.245 137.369L154.553 133.296L151.044 128.973L153.797 122.592L159.294 119.648L168.716 117.404L173.926 124.508L173.929 124.571L174.433 135.372L162.765 144.819L158.637 142.071L150.288 138.033L150.262 137.944L147.772 129.175L147.801 129.108L151.24 120.895L158.118 114.093L158.232 114.121C158.312 114.141 166.202 116.101 170.238 115.437L170.38 115.413L170.45 115.535C174.304 121.94 176.696 123.988 176.718 124.007L176.793 124.069V136.665L176.689 136.725C176.628 136.76 170.592 140.277 163.494 148.092L163.36 148.241L163.206 148.111C161.212 146.419 158.449 146.831 158.424 146.835L158.33 146.849L149.052 139.431L149.036 139.36L146.641 129.373L145.721 117.055L157.56 110.756L157.642 110.779C157.753 110.812 168.804 114.02 172.308 112.944L172.404 112.915L172.488 112.971C179.049 117.459 185.289 122.828 185.352 122.881L185.468 122.981L185.406 123.123C185.382 123.181 182.82 129.131 180.296 138.401L180.273 138.483L180.202 138.527C173.144 142.749 163.94 150.012 163.848 150.087L163.746 150.165L163.628 150.111C163.594 150.093 159.981 148.395 158.368 149.18L158.258 149.235L158.157 149.165C152.657 145.364 146.27 143.053 146.206 143.031L146.089 142.988L146.07 142.863C146.053 142.745 144.328 131.056 142.029 129.499L141.868 129.389L141.966 129.22C143.798 126.108 144.262 116.16 144.266 116.06L144.272 115.932L144.388 115.88C147.681 114.369 156.35 109.997 156.904 107.925L156.976 107.655L157.216 107.8C161.889 110.653 173.388 111.613 173.504 111.623L173.569 111.628L187.072 122.755L184.338 140.472L184.241 140.52C184.054 140.611 165.641 149.688 164.541 152.969L164.481 153.143L164.3 153.108C161.654 152.561 158.286 154.044 158.252 154.059L158.138 154.111L158.038 154.032C157.954 153.965 149.546 147.341 144.438 145.151L144.336 145.108L144.316 145C142.901 137.969 139.276 129.439 139.24 129.353L139.216 129.301L139.225 129.244C139.242 129.104 141.089 115.248 140.025 112.787L139.897 112.491L140.218 112.495C140.245 112.496 140.272 112.496 140.296 112.496C145.384 112.496 156.645 106.195 156.76 106.131L156.83 106.091L174.765 110.343C178.672 113.619 188.508 122.401 188.608 122.489L188.68 122.556L188.677 122.653L187.912 142.147L187.789 142.197C187.589 142.281 167.653 150.603 165.152 155.729L165.078 155.879L164.918 155.843C160.569 154.859 158.212 155.116 158.189 155.119L158.118 155.128L158.057 155.092L143.334 146.293L132.976 128.951L133.004 128.86C133.049 128.725 137.461 115.348 138.181 111.149L138.202 111.028L138.32 110.988C143.062 109.357 156.365 104.08 156.498 104.027L156.549 104.005L156.605 104.013C156.762 104.037 172.272 106.255 180.132 104.02L180.304 103.971L180.378 104.132C187.004 118.311 193.662 121.824 193.729 121.859L193.854 121.921L193.844 122.06L192.217 144.088L192.11 144.141C191.884 144.252 169.488 155.361 167.062 163.084L167.005 163.264L166.821 163.224C161.764 162.173 158.518 163.672 158.486 163.685L158.337 163.757L158.233 163.629C158.141 163.513 149.053 152.421 139.397 152.421C139.145 152.421 138.893 152.429 138.641 152.444L138.449 152.457L138.422 152.268C136.849 141.679 128.285 128.712 128.2 128.583L128.138 128.491L128.178 128.389C128.244 128.229 134.514 112.413 131.122 104.995L130.985 104.691L131.32 104.697C141.154 104.933 155.772 99.2853 155.92 99.228L155.98 99.2053L156.041 99.2199C156.246 99.2653 176.701 103.824 181.173 102.881L181.321 102.851L181.396 102.979C187.549 113.356 195.728 121.585 195.81 121.668L195.864 121.723L195.87 121.799L197.94 146.765L197.797 146.824C197.566 146.916 174.498 156.268 167.844 165.971L167.772 166.075L167.649 166.061C162.77 165.499 158.602 166.056 158.56 166.059L158.477 166.071L158.409 166.023C158.252 165.909 142.554 154.66 134.126 158.212L133.854 158.328L133.837 158.032C133.273 148.327 127.316 131.637 123.853 128.073L123.74 127.956L123.828 127.816C126.98 122.812 129.454 103.537 129.48 103.344L129.497 103.203L129.636 103.168C129.856 103.113 151.604 97.6333 154.934 90.028L155.041 89.7839L155.252 89.944C163.042 95.844 181.049 101.595 182.709 101.196L182.893 101.153L182.954 101.332C185.778 109.579 199.888 121.072 200.03 121.187L200.109 121.251L200.106 121.355C200.102 121.58 199.529 143.887 199.39 147.055L199.386 147.161L199.296 147.221C186.952 155.273 172.405 167.864 169.93 172.641L169.841 172.812L169.662 172.736C167.95 172.005 162.142 169.9 159.31 173.465L159.165 173.647L159 173.484C154.332 168.888 137.916 162.107 128.613 165.261L128.34 165.353L128.338 165.063C128.257 152.785 127.27 137.424 120.292 127.535L120.229 127.447L120.266 127.344C124.728 114.731 124.105 98.2093 124.1 98.0426L124.094 97.9173L124.205 97.8533L154.553 80.528L154.664 80.6199C154.878 80.7959 176.049 98.1653 187.348 96.2133L187.504 96.1866L187.572 96.3306C188.54 98.36 189.48 100.364 190.388 102.301C194.938 112.004 198.869 120.385 201.205 121.012L201.36 121.053V121.212C201.477 132.723 200.496 147.371 200.488 147.517L200.481 147.611L200.408 147.667C200.145 147.876 174.046 168.491 170.94 175.631L170.889 175.741L170.77 175.756C165.19 176.336 159.774 178.127 159.721 178.145L159.653 178.167L159.585 178.145C159.348 178.059 135.674 169.736 123.148 172.323L122.994 172.355L122.921 172.217C119.93 166.544 117.51 158.139 115.17 150.011C112.424 140.464 109.582 130.593 105.765 124.811L105.701 124.716L105.748 124.611C113.572 106.941 119.402 93.1559 119.46 93.0199L119.497 92.9306L119.59 92.9013C119.889 92.8066 149.661 83.4066 154.176 76.6466L154.284 76.4826L154.454 76.5826C169.024 85.16 183.793 92.7373 193.137 90.128L193.338 90.072L193.393 90.2733C194.326 93.6546 195.153 96.7066 195.894 99.4533C199.586 113.1 201.272 119.329 203.87 120.751L203.984 120.812L203.978 120.941C203.433 135.889 202.389 148.183 202.378 148.305L202.373 148.385L202.316 148.439C202.046 148.696 175.393 174.291 174.593 185.555L174.578 185.763L174.37 185.751C168.474 185.336 161.501 189.628 161.432 189.672L161.336 189.732L161.234 189.685C160.957 189.557 133.282 177.017 118.684 178.133L118.532 178.147L118.474 178.004C117.045 174.499 115.397 168.649 113.49 161.879C108.945 145.752 103.29 125.683 96.6331 122.736L96.2237 122.556L96.6251 122.359C102.534 119.448 109.532 82 109.602 81.6226L109.63 81.4693L109.785 81.4519C110.168 81.4119 148.069 77.2773 153.778 67.4613L153.884 67.2813L154.065 67.3853C168.938 76.0186 193.513 85.9493 200.958 82.1293L201.242 81.9839L201.264 82.3026C202.573 102.973 210.638 119.969 210.718 120.139L210.75 120.203L210.734 120.271C210.69 120.485 206.314 141.829 206.469 149.945L206.472 150.052L206.386 150.115C194.989 158.809 176.362 181.596 175.964 189.033L175.95 189.271L175.716 189.229C173.057 188.737 164.213 187.555 162.136 193.133L162.046 193.372L161.828 193.235C156.641 189.973 116.453 183.208 108.59 191.601L108.253 191.964L108.228 191.469C107.773 181.967 102.125 131.319 86.2744 119.988L86.0957 119.86L86.2304 119.688C91.6584 112.84 104.773 83.9426 106.636 78.3693C106.49 78.3493 106.389 78.2879 106.334 78.1839C106.225 77.9773 106.376 77.7413 106.496 77.5813C106.742 77.2573 106.896 77.1493 107.041 77.1733L107.161 77.1893L107.244 77.336C107.281 77.4266 107.265 77.62 107.2 77.908C112.554 76.5773 151.634 54.3613 153.768 49.1133L153.896 48.7946L154.118 49.0573C171.674 69.7626 199.728 79.1453 203.354 79.8453L203.504 79.8746L203.522 80.0266C204.78 90.38 213.324 119.055 216.468 119.425L216.745 119.457L216.634 119.715C214.586 124.487 214.293 152.733 214.29 153.019L214.289 153.112L214.217 153.175C213.876 153.471 179.918 182.937 177.354 192.495L177.329 192.585L177.246 192.625C177.169 192.664 169.432 196.485 162.538 196.485C155.696 196.485 104.47 197.649 103.953 197.66L103.773 197.665L103.742 197.488C103.642 196.923 93.5718 140.62 78.0478 117.563L77.9611 117.433L78.0584 117.313C85.3277 108.369 103.888 82.8906 102.508 72.5573L102.472 72.2786L102.748 72.3226C110.342 73.536 138.885 50.4106 149.629 41.7053C152.562 39.328 153.873 38.272 154.145 38.148L154.324 38.0666L154.416 38.2386C163.632 55.1746 202.7 77.4173 205.694 77.4173C205.71 77.4173 205.726 77.4173 205.74 77.416L205.925 77.3986L205.964 77.5826C207.87 86.92 214.416 117.589 218.57 120.215L218.705 120.299L218.661 120.449C216.62 127.389 232.881 159.496 233.044 159.819L233.145 160.017L232.94 160.107C232.552 160.272 194.105 176.987 181.722 202.523L181.605 202.767L181.4 202.589C175.301 197.348 164.592 205.163 164.484 205.241L164.4 205.304L164.301 205.272C163.786 205.119 112.889 190.133 97.5024 206.449L97.1478 206.827L97.1438 206.308C97.0518 196.895 91.0957 175.965 81.9637 152.996C72.8531 130.079 64.0931 113.863 59.6397 111.684L59.1917 111.464L59.6624 111.3C70.8024 107.4 98.6384 78.0626 98.9744 67.68L98.9771 67.5573L99.0864 67.5013C109.858 61.888 154.064 27.384 154.509 27.0346L154.661 26.9173L154.79 27.056C155.192 27.4853 194.948 69.9226 207.594 75.7066L207.66 75.736L207.692 75.7973C214.056 87.528 218.165 96.372 221.168 102.829C225.73 112.648 227.814 117.129 231.465 117.98L231.632 118.02L231.626 118.191C231.133 133.08 235.885 160.609 235.933 160.885L235.95 160.987L235.881 161.063C235.422 161.551 190.145 209.848 187.82 214.985L187.7 215.247L187.488 215.051C183.032 210.939 166.917 215.056 166.756 215.1L166.696 215.116L166.638 215.095C166.17 214.941 119.676 199.829 93.8171 211.379L93.6091 211.472L91.7224 206.028C81.7851 177.331 61.1104 117.617 53.1051 109.385L52.9091 109.185L53.1584 109.056C82.2984 93.7706 92.8811 59.272 92.9851 58.9253L93.0078 58.8426L93.0838 58.8013L153.976 25.5613L154.082 25.6386C154.573 25.9946 203.244 61.2373 216.206 67.3306L216.294 67.372L216.32 67.4666C221.314 86.484 235.772 117.383 235.917 117.692L235.938 117.741L235.937 117.796C235.922 117.979 234.645 136.34 240.088 162.315L240.117 162.461L239.989 162.537C227.938 169.651 189.706 217.457 189.322 217.939L189.269 218.007L189.182 218.02L168.092 220.447L168.053 220.439C167.48 220.288 110.36 205.277 91.4891 214.535L91.2531 214.649L91.1944 214.395C89.8797 208.728 80.7158 182.248 70.7464 157.277C58.1398 125.693 48.7411 107.555 44.2838 106.204L43.5344 105.976L44.2957 105.8C60.2704 102.091 82.1464 42.4346 82.3637 41.8333L82.4078 41.7186L82.5277 41.6986C83.1237 41.604 142.322 31.9253 155.457 9.36129L155.705 8.93463L155.838 9.40931C162.238 32.128 187.882 37.744 208.269 38.4546C230.42 39.2266 251.304 34.54 251.512 34.492L251.748 34.4386L251.768 34.6786C251.812 35.2066 256.286 87.8 265.636 115.061L265.662 115.141L265.628 115.219C249.149 150.139 249.996 165.537 250.006 165.688L250.014 165.792L249.936 165.86C249.417 166.311 198.03 210.975 194.49 227.069L194.453 227.236L194.281 227.231C187.278 227.111 172.593 234.699 172.445 234.775L172.341 234.829L172.242 234.769C172.108 234.689 158.636 226.647 141.173 221.316C125.078 216.403 102.205 212.856 84.6371 223.851L84.4397 223.975L84.3371 223.761C81.4731 217.744 77.5477 204.941 73.0011 190.12C62.3691 155.447 47.8064 107.96 33.2651 102.001L32.8584 101.835L33.2438 101.624C43.5678 96.0226 64.9491 66.0146 78.1078 34.2386L78.1611 34.1133L78.2957 34.1106C93.9971 33.6786 155.22 5.59197 155.836 5.30797L155.976 5.24531L156.078 5.35729C163.837 13.8186 260.646 25.484 261.622 25.6013L261.792 25.62L261.806 25.7906C261.824 25.988 263.494 45.7186 268.616 66.1586C273.333 84.9826 282.02 108.276 296.62 112.34L296.904 112.419L296.734 112.661C280.848 135.32 270.692 172.003 270.592 172.371L270.569 172.453L270.494 172.497C269.821 172.889 203.018 211.996 196.378 230.291L196.333 230.413L196.206 230.425C177.005 232.692 173.409 237.308 173.374 237.353L173.282 237.477Z" fill="#eaeaea"/>
<path d="M232.144 33.3333C212.446 33.3333 195.75 28.6919 183.982 24.0532C166.36 17.1052 155.686 8.6626 155.581 8.5786L155.842 8.25191C155.946 8.33591 166.581 16.7466 184.15 23.6693C200.36 30.0573 225.96 36.4506 255.854 30.6292L255.936 31.0399C247.64 32.6546 239.67 33.3333 232.144 33.3333Z" fill="#eaeaea"/>
<path d="M242.474 117.217C233.152 92.6813 248.68 37.4533 248.837 36.8986L249.24 37.0133C249.082 37.5667 233.59 92.6626 242.864 117.068L242.474 117.217" fill="#eaeaea"/>
<path d="M236.124 48.9039C235.96 48.8959 219.558 48.1399 201.436 44.3319C184.684 40.8119 162.99 33.8893 154.772 20.8933L155.125 20.6693C170.717 45.3306 235.49 48.4572 236.142 48.4852L236.124 48.9039" fill="#eaeaea"/>
<path d="M50.1931 108.197L49.8451 107.965L87.9931 51.0893L88.3398 51.3226L50.1931 108.197Z" fill="#eaeaea"/>
<path d="M264.993 170.567L264.574 170.549C265.374 150.743 285.489 113.683 285.693 113.309L286.058 113.509C285.857 113.881 265.788 150.855 264.993 170.567" fill="#eaeaea"/>
</svg>
